        <svg width="500px" height="500px">
            <ellipse cx="110" cy="150" rx="31" ry="50" fill="#5c2706"/>
            <ellipse cx="115" cy="200" rx="32" ry="50" fill="#5c2706"/>
            <ellipse cx="100" cy="30" rx="30" ry="30" fill="#ff0000"/>
            <g id="head">
                <ellipse cx="100" cy="70" rx="35" ry="50" fill="#5c2706"/>
                <ellipse cx="85" cy="70" rx="10" ry="15" fill="#ffffff" transform="rotate(-8)"/>
                <ellipse cx="115" cy="42" rx="10" ry="15" fill="#ffffff" transform="rotate(8)"/>
                <ellipse cx="85" cy="70" rx="5" ry="7" fill="#000000" transform="rotate(-8)"></ellipse>
                <ellipse cx="115" cy="42" rx="5" ry="7" fill="#000000" transform="rotate(8)"/>
                <ellipse cx="102" cy="96" rx="7" ry="8" fill="#000000"/>
                <ellipse cx="109" cy="76" rx="10" ry="10" fill="#5c2706"/>
                <ellipse cx="109" cy="76" rx="10" ry="10" fill="#5c2706"/>
                <ellipse cx="95" cy="76" rx="11" ry="10" fill="#5c2706"></ellipse>
                <path d="M 85 70 C 90 65, 100 65, 103 70" stroke="black" fill="transparent"/>
                <path d="M 100 70 C 105 65, 115 65, 118 70" stroke="black" fill="transparent"/>
            </g>
            <polygon points="63,30 63,50 113,50 113,30" style="fill:black"/>
        </svg>